<svg width="209" height="23" viewBox="0 0 209 23" fill="none" xmlns="http://www.w3.org/2000/svg">
<path d="M21.552 18.224C21.4667 18.5013 21.424 18.7787 21.424 19.056C21.424 19.2907 21.456 19.4933 21.52 19.664C21.584 19.8133 21.648 19.9413 21.712 20.048C21.7973 20.1333 21.8507 20.1973 21.872 20.24C22.0853 20.4533 22.192 20.6667 22.192 20.88C22.192 20.9227 22.1707 21.0293 22.128 21.2C22.0427 21.4987 21.8507 21.712 21.552 21.84C21.2747 21.9467 20.8373 22 20.24 22H12.656C12.208 22 11.856 21.9253 11.6 21.776C11.3653 21.6267 11.248 21.424 11.248 21.168C11.248 21.04 11.28 20.9013 11.344 20.752C11.408 20.5813 11.4933 20.4533 11.6 20.368C11.728 20.2613 11.8987 20.144 12.112 20.016C12.4533 19.824 12.7307 19.6107 12.944 19.376C13.1573 19.1413 13.3387 18.7573 13.488 18.224L14.32 15.472H9.328L8.464 17.296C8.10133 18.0853 7.92 18.704 7.92 19.152C7.92 19.408 7.96267 19.6213 8.048 19.792C8.13333 19.9413 8.26133 20.1013 8.432 20.272C8.58133 20.4427 8.67733 20.592 8.72 20.72C8.784 20.8267 8.79467 20.976 8.752 21.168C8.66667 21.488 8.48533 21.712 8.208 21.84C7.952 21.9467 7.536 22 6.96 22H2.192C1.70133 22 1.328 21.9147 1.072 21.744C0.816 21.552 0.688 21.3067 0.688 21.008C0.688 20.6667 0.816 20.4 1.072 20.208C1.30667 19.9947 1.66933 19.7707 2.16 19.536C2.8 19.216 3.312 18.9067 3.696 18.608C4.08 18.288 4.41067 17.8507 4.688 17.296L10.384 5.488C11.2587 3.65333 12.2827 2.33066 13.456 1.52C14.6507 0.687999 16.2187 0.271999 18.16 0.271999C20.336 0.271999 22.0213 0.719999 23.216 1.616C24.4107 2.49067 25.008 3.71733 25.008 5.296C25.008 5.95733 24.9013 6.64 24.688 7.344L21.552 18.224ZM15.28 12.272L16.976 6.64C17.0613 6.384 17.104 6.11733 17.104 5.84C17.104 5.43467 16.9867 5.136 16.752 4.944C16.5387 4.73067 16.2293 4.624 15.824 4.624C15.312 4.624 14.8747 4.77333 14.512 5.072C14.1493 5.37067 13.7867 5.904 13.424 6.672L10.8 12.272H15.28ZM42.3673 13.744C42.9646 13.744 43.4126 13.872 43.7113 14.128C44.0313 14.3627 44.1913 14.704 44.1913 15.152C44.1913 15.344 44.1593 15.5573 44.0953 15.792L43.0393 19.536C42.7619 20.4533 42.3673 21.0933 41.8553 21.456C41.3646 21.8187 40.6286 22 39.6473 22H24.6073C24.1593 22 23.8179 21.9253 23.5832 21.776C23.3272 21.6267 23.1992 21.424 23.1992 21.168C23.1992 21.04 23.2312 20.9013 23.2952 20.752C23.3592 20.5813 23.4659 20.4427 23.6152 20.336C23.7646 20.208 23.9246 20.0907 24.0953 19.984C24.4366 19.7707 24.7139 19.5573 24.9273 19.344C25.1406 19.1093 25.3219 18.736 25.4713 18.224L29.3753 4.432C29.4606 4.15467 29.5033 3.888 29.5033 3.632C29.5033 3.39733 29.4606 3.20533 29.3753 3.056C29.3113 2.88533 29.2153 2.69333 29.0873 2.48C28.8953 2.20267 28.7993 1.97867 28.7993 1.808C28.7993 1.744 28.8206 1.62667 28.8633 1.456C28.9486 1.17867 29.1299 0.986666 29.4073 0.879999C29.7059 0.752 30.1539 0.688 30.7513 0.688H38.2713C38.7193 0.688 39.0606 0.762666 39.2953 0.911999C39.5513 1.04 39.6793 1.232 39.6793 1.488C39.6793 1.59467 39.6473 1.73333 39.5833 1.904C39.5193 2.05333 39.4233 2.192 39.2953 2.32C39.1886 2.42667 39.0819 2.512 38.9753 2.576C38.8899 2.61867 38.8259 2.66133 38.7833 2.704C38.4419 2.896 38.1646 3.10933 37.9513 3.344C37.7379 3.57867 37.5566 3.94133 37.4073 4.432L33.2793 18.928H35.2633C35.7539 18.928 36.1699 18.8427 36.5113 18.672C36.8739 18.5013 37.2473 18.1813 37.6313 17.712L39.8393 15.088C40.2446 14.6187 40.6286 14.2773 40.9913 14.064C41.3753 13.8507 41.8339 13.744 42.3673 13.744ZM62.123 0.688C64.3843 0.688 66.123 1.17867 67.339 2.16C68.5763 3.14133 69.195 4.44267 69.195 6.064C69.195 6.704 69.099 7.376 68.907 8.08C68.3097 10.2133 67.1257 11.792 65.355 12.816C63.6057 13.84 61.387 14.352 58.699 14.352H55.403L54.315 18.224C54.2723 18.352 54.251 18.5227 54.251 18.736C54.251 19.0347 54.315 19.28 54.443 19.472C54.5923 19.664 54.8057 19.888 55.083 20.144C55.3177 20.3573 55.4777 20.5173 55.563 20.624C55.6483 20.7307 55.691 20.8587 55.691 21.008C55.691 21.3707 55.5203 21.6267 55.179 21.776C54.8377 21.9253 54.3363 22 53.675 22H45.643C45.0883 22 44.6723 21.904 44.395 21.712C44.1177 21.4987 44.0217 21.2107 44.107 20.848C44.1497 20.656 44.235 20.5067 44.363 20.4C44.4697 20.272 44.6403 20.1333 44.875 19.984C45.2377 19.7707 45.5257 19.5467 45.739 19.312C45.9523 19.0773 46.123 18.7147 46.251 18.224L50.155 4.432C50.2403 4.15467 50.283 3.888 50.283 3.632C50.283 3.39733 50.2403 3.20533 50.155 3.056C50.091 2.88533 49.995 2.69333 49.867 2.48C49.675 2.20267 49.579 1.97867 49.579 1.808C49.579 1.744 49.6003 1.62667 49.643 1.456C49.7283 1.17867 49.9097 0.986666 50.187 0.879999C50.4857 0.752 50.9337 0.688 51.531 0.688H62.123ZM61.291 7.504C61.5257 6.71467 61.643 6.02133 61.643 5.424C61.643 4.18667 61.067 3.568 59.915 3.568H58.475L56.203 11.472H57.611C58.507 11.472 59.2323 11.1947 59.787 10.64C60.363 10.064 60.8643 9.01867 61.291 7.504ZM94.6868 0.688C95.1348 0.688 95.4761 0.762666 95.7108 0.911999C95.9668 1.06133 96.0948 1.25333 96.0948 1.488C96.0948 1.59467 96.0628 1.73333 95.9988 1.904C95.9348 2.05333 95.8388 2.192 95.7108 2.32C95.6041 2.42667 95.4974 2.512 95.3908 2.576C95.3054 2.61867 95.2414 2.66133 95.1988 2.704C94.8574 2.896 94.5801 3.10933 94.3668 3.344C94.1534 3.57867 93.9721 3.94133 93.8228 4.432L89.8868 18.224C89.8014 18.5013 89.7588 18.768 89.7588 19.024C89.7588 19.28 89.7908 19.4827 89.8548 19.632C89.9401 19.7813 90.0574 19.9733 90.2068 20.208C90.2281 20.2293 90.2814 20.3147 90.3668 20.464C90.4734 20.592 90.5268 20.7307 90.5268 20.88C90.5268 20.9227 90.5054 21.0293 90.4628 21.2C90.3561 21.4987 90.1534 21.712 89.8548 21.84C89.5561 21.9467 89.1081 22 88.5108 22H80.9908C80.5428 22 80.1908 21.9253 79.9348 21.776C79.7001 21.6267 79.5828 21.424 79.5828 21.168C79.5828 21.04 79.6148 20.9013 79.6788 20.752C79.7641 20.5813 79.8814 20.4427 80.0308 20.336C80.1801 20.208 80.3294 20.1013 80.4788 20.016C80.8201 19.824 81.0974 19.6107 81.3108 19.376C81.5241 19.12 81.7054 18.736 81.8548 18.224L83.3908 12.88H77.7268L76.1908 18.224C76.1054 18.5013 76.0628 18.768 76.0628 19.024C76.0628 19.28 76.0948 19.4827 76.1588 19.632C76.2441 19.7813 76.3614 19.9733 76.5108 20.208C76.5321 20.2293 76.5854 20.3147 76.6708 20.464C76.7774 20.592 76.8308 20.7307 76.8308 20.88C76.8308 20.9227 76.8094 21.0293 76.7668 21.2C76.6601 21.4987 76.4574 21.712 76.1588 21.84C75.8601 21.9467 75.4121 22 74.8148 22H67.2948C66.8468 22 66.5054 21.9253 66.2707 21.776C66.0147 21.6267 65.8867 21.424 65.8867 21.168C65.8867 21.04 65.9187 20.9013 65.9827 20.752C66.0681 20.5813 66.1854 20.4427 66.3347 20.336C66.4841 20.208 66.6334 20.1013 66.7828 20.016C67.1241 19.824 67.4014 19.6107 67.6148 19.376C67.8281 19.12 68.0094 18.736 68.1588 18.224L72.0948 4.432C72.1801 4.15467 72.2228 3.888 72.2228 3.632C72.2228 3.39733 72.1801 3.20533 72.0948 3.056C72.0308 2.88533 71.9348 2.69333 71.8068 2.48C71.7214 2.37333 71.6468 2.26667 71.5828 2.16C71.5188 2.032 71.4868 1.904 71.4868 1.776C71.4868 1.73333 71.5081 1.62667 71.5508 1.456C71.6361 1.17867 71.8281 0.986666 72.1268 0.879999C72.4254 0.752 72.8734 0.688 73.4708 0.688H80.9908C81.4388 0.688 81.7801 0.762666 82.0148 0.911999C82.2708 1.06133 82.3988 1.25333 82.3988 1.488C82.3988 1.59467 82.3668 1.73333 82.3028 1.904C82.2388 2.05333 82.1428 2.192 82.0148 2.32C81.9081 2.42667 81.8014 2.512 81.6948 2.576C81.6094 2.61867 81.5454 2.66133 81.5028 2.704C81.1614 2.896 80.8841 3.10933 80.6708 3.344C80.4574 3.57867 80.2761 3.94133 80.1268 4.432L78.6228 9.68H84.2868L85.7908 4.432C85.8761 4.15467 85.9188 3.888 85.9188 3.632C85.9188 3.39733 85.8761 3.20533 85.7908 3.056C85.7268 2.88533 85.6308 2.69333 85.5028 2.48C85.4174 2.37333 85.3428 2.26667 85.2788 2.16C85.2148 2.032 85.1828 1.904 85.1828 1.776C85.1828 1.73333 85.2041 1.62667 85.2468 1.456C85.3321 1.17867 85.5241 0.986666 85.8228 0.879999C86.1214 0.752 86.5694 0.688 87.1668 0.688H94.6868ZM112.958 18.224C112.873 18.5013 112.83 18.7787 112.83 19.056C112.83 19.2907 112.862 19.4933 112.926 19.664C112.99 19.8133 113.054 19.9413 113.118 20.048C113.204 20.1333 113.257 20.1973 113.278 20.24C113.492 20.4533 113.598 20.6667 113.598 20.88C113.598 20.9227 113.577 21.0293 113.534 21.2C113.449 21.4987 113.257 21.712 112.958 21.84C112.681 21.9467 112.244 22 111.646 22H104.062C103.614 22 103.262 21.9253 103.006 21.776C102.772 21.6267 102.654 21.424 102.654 21.168C102.654 21.04 102.686 20.9013 102.75 20.752C102.814 20.5813 102.9 20.4533 103.006 20.368C103.134 20.2613 103.305 20.144 103.518 20.016C103.86 19.824 104.137 19.6107 104.35 19.376C104.564 19.1413 104.745 18.7573 104.894 18.224L105.726 15.472H100.734L99.8703 17.296C99.5076 18.0853 99.3263 18.704 99.3263 19.152C99.3263 19.408 99.3689 19.6213 99.4543 19.792C99.5396 19.9413 99.6676 20.1013 99.8383 20.272C99.9876 20.4427 100.084 20.592 100.126 20.72C100.19 20.8267 100.201 20.976 100.158 21.168C100.073 21.488 99.8916 21.712 99.6143 21.84C99.3583 21.9467 98.9423 22 98.3663 22H93.5983C93.1076 22 92.7342 21.9147 92.4782 21.744C92.2222 21.552 92.0942 21.3067 92.0942 21.008C92.0942 20.6667 92.2222 20.4 92.4782 20.208C92.7129 19.9947 93.0756 19.7707 93.5663 19.536C94.2063 19.216 94.7183 18.9067 95.1023 18.608C95.4863 18.288 95.8169 17.8507 96.0943 17.296L101.79 5.488C102.665 3.65333 103.689 2.33066 104.862 1.52C106.057 0.687999 107.625 0.271999 109.566 0.271999C111.742 0.271999 113.428 0.719999 114.622 1.616C115.817 2.49067 116.414 3.71733 116.414 5.296C116.414 5.95733 116.308 6.64 116.094 7.344L112.958 18.224ZM106.686 12.272L108.382 6.64C108.468 6.384 108.51 6.11733 108.51 5.84C108.51 5.43467 108.393 5.136 108.158 4.944C107.945 4.73067 107.636 4.624 107.23 4.624C106.718 4.624 106.281 4.77333 105.918 5.072C105.556 5.37067 105.193 5.904 104.83 6.672L102.206 12.272H106.686ZM133.582 0.688C135.032 0.688 136.291 0.911999 137.358 1.36C138.446 1.78667 139.267 2.384 139.822 3.152C140.398 3.89867 140.686 4.76267 140.686 5.744C140.686 6.29867 140.611 6.81067 140.462 7.28C139.843 9.43467 138.062 10.8 135.118 11.376C136.142 11.6747 136.952 12.176 137.55 12.88C138.147 13.5627 138.446 14.416 138.446 15.44C138.446 15.9093 138.36 16.464 138.19 17.104C137.72 18.768 136.771 20.0053 135.342 20.816C133.934 21.6053 131.928 22 129.326 22H116.014C115.566 22 115.224 21.9253 114.989 21.776C114.733 21.6267 114.605 21.424 114.605 21.168C114.605 21.04 114.637 20.9013 114.701 20.752C114.787 20.5173 114.925 20.336 115.117 20.208C115.309 20.08 115.427 20.0053 115.47 19.984C115.811 19.7707 116.088 19.5573 116.302 19.344C116.515 19.1093 116.696 18.736 116.846 18.224L120.75 4.432C120.835 4.15467 120.878 3.888 120.878 3.632C120.878 3.39733 120.835 3.20533 120.75 3.056C120.686 2.88533 120.59 2.69333 120.462 2.48C120.27 2.20267 120.174 1.97867 120.174 1.808C120.174 1.744 120.195 1.62667 120.238 1.456C120.323 1.17867 120.504 0.986666 120.782 0.879999C121.08 0.752 121.528 0.688 122.126 0.688H133.582ZM132.142 6.544C132.291 6.07467 132.366 5.63733 132.366 5.232C132.366 4.12267 131.736 3.568 130.478 3.568H129.038L127.342 9.552H128.75C129.646 9.552 130.35 9.33867 130.862 8.912C131.395 8.464 131.822 7.67467 132.142 6.544ZM129.806 15.952C129.955 15.44 130.03 14.9707 130.03 14.544C130.03 13.392 129.368 12.816 128.046 12.816H126.446L124.622 19.12H126.254C127.171 19.12 127.907 18.896 128.462 18.448C129.016 17.9787 129.464 17.1467 129.806 15.952ZM155.365 0.207998C158.053 0.207998 160.155 0.847998 161.669 2.128C163.184 3.38667 163.941 5.21067 163.941 7.6C163.941 8.73067 163.771 9.94667 163.429 11.248C162.789 13.6373 161.797 15.664 160.453 17.328C159.109 18.992 157.509 20.2507 155.653 21.104C153.797 21.9573 151.781 22.384 149.605 22.384C146.939 22.384 144.848 21.7547 143.333 20.496C141.819 19.216 141.061 17.3813 141.061 14.992C141.061 13.904 141.243 12.656 141.605 11.248C142.224 8.88 143.195 6.87467 144.517 5.232C145.861 3.568 147.451 2.32 149.285 1.488C151.141 0.634665 153.168 0.207998 155.365 0.207998ZM154.789 3.344C154.149 3.344 153.573 3.6 153.061 4.112C152.549 4.624 152.037 5.46667 151.525 6.64C151.035 7.792 150.501 9.40267 149.925 11.472C149.072 14.4587 148.645 16.5173 148.645 17.648C148.645 18.3093 148.763 18.7893 148.997 19.088C149.232 19.3867 149.605 19.536 150.117 19.536C150.757 19.536 151.333 19.28 151.845 18.768C152.357 18.2347 152.859 17.392 153.349 16.24C153.84 15.088 154.384 13.4987 154.981 11.472C155.813 8.528 156.229 6.45867 156.229 5.264C156.229 4.58133 156.112 4.09067 155.877 3.792C155.643 3.49333 155.28 3.344 154.789 3.344ZM189.673 0.688C190.164 0.688 190.537 0.784 190.793 0.976C191.049 1.14667 191.177 1.38133 191.177 1.68C191.177 1.808 191.167 1.904 191.145 1.968C191.081 2.24533 190.953 2.45867 190.761 2.608C190.569 2.736 190.26 2.88533 189.833 3.056C189.257 3.312 188.735 3.568 188.265 3.824C187.817 4.05867 187.295 4.432 186.697 4.944L180.329 10.352L183.433 17.904C183.647 18.416 183.881 18.8107 184.137 19.088C184.415 19.3653 184.745 19.632 185.129 19.888C185.407 20.1013 185.599 20.272 185.705 20.4C185.812 20.5067 185.865 20.6667 185.865 20.88C185.865 21.264 185.737 21.552 185.481 21.744C185.225 21.9147 184.799 22 184.201 22H175.593C175.039 22 174.623 21.9147 174.345 21.744C174.089 21.552 173.961 21.3067 173.961 21.008C173.961 20.88 173.972 20.784 173.993 20.72C174.036 20.5707 174.111 20.4427 174.217 20.336C174.324 20.208 174.431 20.1013 174.537 20.016C174.708 19.8667 174.836 19.728 174.921 19.6C175.007 19.472 175.049 19.2907 175.049 19.056C175.049 18.6933 174.932 18.224 174.697 17.648L173.577 14.928L170.665 17.648C170.068 18.1813 169.769 18.6613 169.769 19.088C169.769 19.28 169.812 19.44 169.897 19.568C169.983 19.696 170.121 19.8667 170.313 20.08C170.505 20.272 170.644 20.4533 170.729 20.624C170.836 20.7947 170.857 20.976 170.793 21.168C170.708 21.488 170.527 21.712 170.249 21.84C169.993 21.9467 169.577 22 169.001 22H162.313C161.823 22 161.449 21.9147 161.193 21.744C160.937 21.552 160.809 21.3067 160.809 21.008C160.809 20.88 160.82 20.784 160.841 20.72C160.905 20.4427 161.033 20.24 161.225 20.112C161.417 19.9627 161.727 19.8027 162.153 19.632C162.751 19.376 163.273 19.12 163.721 18.864C164.191 18.608 164.713 18.2347 165.289 17.744L172.265 11.76L169.385 4.784C169.172 4.272 168.927 3.87733 168.649 3.6C168.393 3.32267 168.073 3.056 167.689 2.8C167.412 2.58667 167.22 2.42667 167.113 2.32C167.007 2.192 166.953 2.02133 166.953 1.808C166.953 1.424 167.081 1.14667 167.337 0.976C167.593 0.784 168.02 0.688 168.617 0.688H177.225C177.78 0.688 178.185 0.784 178.441 0.976C178.719 1.14667 178.857 1.38133 178.857 1.68C178.857 1.808 178.847 1.904 178.825 1.968C178.783 2.11733 178.708 2.256 178.601 2.384C178.495 2.49067 178.388 2.58667 178.281 2.672C178.111 2.82133 177.983 2.96 177.897 3.088C177.812 3.216 177.769 3.39733 177.769 3.632C177.769 3.97333 177.887 4.44267 178.121 5.04L179.017 7.184L181.321 5.04C181.94 4.48533 182.249 4.00533 182.249 3.6C182.249 3.408 182.196 3.248 182.089 3.12C182.004 2.97067 181.865 2.8 181.673 2.608C181.631 2.56533 181.545 2.48 181.417 2.352C181.311 2.20267 181.236 2.064 181.193 1.936C181.151 1.78667 181.151 1.648 181.193 1.52C181.279 1.2 181.449 0.986666 181.705 0.879999C181.983 0.752 182.409 0.688 182.985 0.688H189.673ZM206.46 9.392C207.506 9.392 208.028 9.79733 208.028 10.608C208.028 10.6933 208.007 10.864 207.964 11.12C207.602 12.272 206.802 12.848 205.564 12.848H200.668L199.548 17.04C199.399 17.6373 199.132 18.0853 198.748 18.384C198.386 18.6827 197.959 18.832 197.468 18.832C196.978 18.832 196.583 18.704 196.284 18.448C196.007 18.1707 195.868 17.7973 195.868 17.328C195.868 17.0933 195.9 16.848 195.964 16.592L196.988 12.848H192.252C191.74 12.848 191.346 12.752 191.068 12.56C190.812 12.3467 190.684 12.0587 190.684 11.696C190.684 11.5253 190.716 11.3333 190.78 11.12C190.93 10.5653 191.207 10.1387 191.612 9.84C192.018 9.54133 192.53 9.392 193.148 9.392H197.916L199.036 5.2C199.186 4.60267 199.442 4.15467 199.804 3.856C200.167 3.55733 200.594 3.408 201.084 3.408C201.575 3.408 201.959 3.54667 202.236 3.824C202.535 4.08 202.684 4.44267 202.684 4.912C202.684 5.14667 202.652 5.392 202.588 5.648L201.596 9.392H206.46Z" fill="white"/>
</svg>
